<?xml version="1.0" encoding="utf-8"?>
<!-- Generator: Adobe Illustrator 23.0.5, SVG Export Plug-In . SVG Version: 6.00 Build 0)  -->
<svg version="1.1" xmlns="http://www.w3.org/2000/svg" xmlns:xlink="http://www.w3.org/1999/xlink" x="0px" y="0px"
	 viewBox="0 0 1162.8 675.3" style="enable-background:new 0 0 1162.8 675.3;" xml:space="preserve">
<style type="text/css">
	.st0{clip-path:url(#SVGID_2_);}
	.st1{clip-path:url(#SVGID_4_);fill:url(#SVGID_5_);}
	.st2{clip-path:url(#SVGID_4_);fill:url(#SVGID_6_);}
	.st3{clip-path:url(#SVGID_4_);}
	.st4{fill:none;stroke:#FFFFFF;stroke-width:0.2717;stroke-miterlimit:10;}
	.st5{fill:url(#SVGID_7_);}
	.st6{fill:#97B4FB;}
	.st7{fill:none;stroke:#CDDBFD;stroke-width:0.6622;stroke-linecap:round;stroke-linejoin:round;stroke-miterlimit:10;}
	.st8{fill:url(#SVGID_8_);}
	.st9{fill:url(#SVGID_9_);}
	.st10{fill:none;stroke:#0A0940;stroke-width:0.4868;stroke-linecap:round;stroke-linejoin:round;stroke-miterlimit:10;}
	.st11{fill:url(#SVGID_10_);}
	.st12{fill:#CDDBFD;}
	.st13{fill:#FFFFFF;}
	.st14{opacity:0.69;}
	.st15{fill:#4E5EE6;}
	.st16{fill:#97A6F3;}
</style>
<g id="OBJECTS">
	<g>
		<defs>
			<rect id="SVGID_1_" x="31" y="7.9" width="1131.8" height="667.4"/>
		</defs>
		<clipPath id="SVGID_2_">
			<use xlink:href="#SVGID_1_"  style="overflow:visible;"/>
		</clipPath>
		<g class="st0">
			<g>
				<g>
					<g>
						<g>
							<defs>
								<path id="SVGID_3_" d="M1130.1,468.3c-11-19.4-24.3-38-42.1-47.9c-17.8-9.9-40.9-8.9-54,7.7c-2.8,3.5-5.1,7.8-5.7,12.6
									c-0.8,6.1,1.2,12.2,3.6,17.8c16,36.3,51.3,54.9,72.8,87.2c18.7,28.1,34.6,70.3,57.1,89.4c15.5,13.2,29.6-4.2,14.1-60.5
									C1165.5,536.2,1149.3,502.1,1130.1,468.3z"/>
							</defs>
							<clipPath id="SVGID_4_">
								<use xlink:href="#SVGID_3_"  style="overflow:visible;"/>
							</clipPath>
							
								<linearGradient id="SVGID_5_" gradientUnits="userSpaceOnUse" x1="1052.3793" y1="545.7713" x2="1177.7988" y2="545.7713" gradientTransform="matrix(0.9859 -0.1671 0.1671 0.9859 -84.825 176.6204)">
								<stop  offset="0.2151" style="stop-color:#97B4FB"/>
								<stop  offset="1" style="stop-color:#CDDBFD"/>
							</linearGradient>
							<path class="st1" d="M1130.1,468.3c-11-19.4-24.3-38-42.1-47.9c-17.8-9.9-40.9-8.9-54,7.7c-2.8,3.5-5.1,7.8-5.7,12.6
								c-0.8,6.1,1.2,12.2,3.6,17.8c16,36.3,51.3,54.9,72.8,87.2c18.7,28.1,34.6,70.3,57.1,89.4c15.5,13.2,29.6-4.2,14.1-60.5
								C1165.5,536.2,1149.3,502.1,1130.1,468.3z"/>
							
								<linearGradient id="SVGID_6_" gradientUnits="userSpaceOnUse" x1="1186.9005" y1="632.2114" x2="1091.0132" y2="444.4321" gradientTransform="matrix(0.9859 -0.1671 0.1671 0.9859 -84.825 176.6204)">
								<stop  offset="0" style="stop-color:#667EBA"/>
								<stop  offset="0.4781" style="stop-color:#86A6FB"/>
							</linearGradient>
							<path class="st2" d="M1176,574.4c-10.5-38.2-26.7-72.3-45.9-106.1c-11-19.4-24.3-38-42.1-47.9c-15.2-8.5-34.4-8.9-47.8,1.5
								c24.6,18.4,46.3,45.7,64.7,71.6c39.8,56.4,57.3,99.3,71.9,143.4C1183.7,630.5,1185.9,610.4,1176,574.4z"/>
							<g class="st3">
								<path class="st4" d="M1071.3,450.9c1.7-17-0.1-34.7-5.1-51"/>
								<path class="st4" d="M1043.2,488.5c8.1-5.8,16.6-11.1,25.3-15.6c5.1-2.7,10.3-5.2,15.9-5.7"/>
								<path class="st4" d="M1106.8,497.7c4.1-18.9,11.7-36.7,22.1-51.6"/>
								<path class="st4" d="M1122.3,518.5c-14.6-4.1-30.1-2.6-43.7,4.3"/>
								<path class="st4" d="M1134,539.1c5.2-15.5,14.4-29,25.9-38.4"/>
								<path class="st4" d="M1149.6,568.3c-17.9-8.5-37.8-10.5-56.4-5.7"/>
								<path class="st4" d="M1159.8,590.5c6.2-11.8,13.6-22.6,22-32.3"/>
								<path class="st4" d="M1110.4,501.5c3.5-16.2,9.8-31.4,18.4-44.4"/>
								<path class="st4" d="M1082.8,463.9c-15.8,1.6-31.1,8.6-43.5,20"/>
								<path class="st4" d="M1136,542.5c5.9-12.4,14.1-23.2,23.8-31.5c0.2-0.2,0.4-0.4,0.3-0.7c-0.1-0.3-0.6,0-0.3,0.2"/>
								<path class="st4" d="M1109.3,571.8c14.3-5.3,30.6-3.5,44.1,5"/>
							</g>
						</g>
						<path class="st4" d="M1039.6,421.6c33.4,26.4,43.3,40.6,65.3,71.9c53.7,76,66.7,127.6,86.9,190.5"/>
					</g>
					<g>
						
							<linearGradient id="SVGID_7_" gradientUnits="userSpaceOnUse" x1="1129.3228" y1="380.8364" x2="1351.6251" y2="685.5216" gradientTransform="matrix(0.9717 -0.2361 0.2361 0.9717 -81.9139 268.9197)">
							<stop  offset="0" style="stop-color:#3E6AFA"/>
							<stop  offset="0.8585" style="stop-color:#0A0940"/>
						</linearGradient>
						<path class="st5" d="M1105,339.1c-2.9-1.8-6.4-3.3-9.2-1.6c-1.3,0.8-2.3,2.2-3,3.7c-3.7,8.4,1.6,18.9,7.8,25.4
							c6.3,6.5,14,11.8,17.6,20.6c-6.5,2.5-13.8-3.9-20.6-2.6c-4.9,0.9-8.7,6-9.3,11.8c-0.6,5.8,1.8,11.9,5.7,15.6
							c8.7,8.4,21.5,4.6,32.1,8.5c2.9,1.1,5.8,2.8,7.5,5.8c1.7,2.9,2,7.2,0.1,9.8c-4.2,5.4-14.2-0.6-17.6,5.6
							c-1.5,2.7-0.7,6.5,1.2,9c1.9,2.5,4.6,3.8,7.2,4.9c6.3,2.5,12.9,3.5,19.3,3.1c2.4-0.2,4.8-0.5,7.1,0.2c2.3,0.7,4.6,2.7,5.1,5.4
							c1.4,8.3-13.1,10.9-11,19.1c1.2,4.7,6.7,5.1,10.8,4.4c9.6-1.6,19.1-3.1,28.7-4.7c5.2-0.9,11-2.1,13.9-7.2c1.5-2.6,2-5.8,2.3-9
							c2-17.2,2-34.9-0.1-52.3c-0.5-3.9-1.1-8-3.4-10.9c-2.3-3-6.6-4-8.7-1.1c-1.4,1.9-2.6,5.4-4.5,4.1c-0.9-0.6-1.1-1.9-1.2-3.1
							c-1.8-18.4-1.2-38.6-11.3-53.1c-0.9-1.4-2-2.7-3.4-3.3c-3.6-1.6-7.2,2.4-8.2,6.7c-1,4.3-0.4,8.9-1.3,13.2
							c-0.9,4.3-4.4,8.4-8,7c-1-12.4-5.1-24.6-11.6-34.8c-2.6-4-7.3-8-10.5-5c-1.7,1.6-2,4.6-2,7.3c0,5.8,0.7,11.6,2.1,17.2
							c0.7,2.7,2.2,9-1.5,8.4c-2-0.3-4.8-8.8-5.8-10.7C1117,349.2,1111.5,343.2,1105,339.1z"/>
						<g>
							<path class="st6" d="M1105.9,361c0.5,0.5,1,1.1,1.5,1.4c0.6,0.4,1.3,0.5,1.9,0.2c0.1-0.1,0.3-0.2,0.3-0.3
								c0.1-0.2,0-0.5-0.1-0.7c-0.8-2.1-2.1-3.8-3.4-5.5c-0.4-0.5-0.8-1-1.3-1.3c-0.5-0.3-1.2-0.3-1.6,0.2c-0.6,0.7-0.3,1.9,0.2,2.7
								C1104,358.8,1105,360,1105.9,361z"/>
							<path class="st6" d="M1102.7,350.3c0.2,0.2,0.6,0.3,0.8,0c0.1-0.1,0.1-0.2,0.1-0.3c0.2-1.1,0-2.3-0.6-3.3
								c-0.2-0.3-0.4-0.5-0.6-0.5c-0.2,0-0.3,0.2-0.4,0.4c-0.2,0.4-0.2,0.9-0.1,1.3C1101.9,348.6,1102.3,349.9,1102.7,350.3z"/>
							<path class="st6" d="M1106.6,365.8c-0.2-0.1-0.4,0-0.5,0.2c0,0.1,0,0.1,0,0.2c0.1,0.7,0.5,1.4,1,1.8c0.1,0.1,0.3,0.2,0.5,0.1
								c0.1-0.1,0.1-0.2,0.1-0.3c0-0.3-0.1-0.6-0.2-0.9C1107.4,366.5,1106.9,365.9,1106.6,365.8z"/>
							<path class="st6" d="M1118,376.5c-0.2,0.1-0.3,0.3-0.2,0.5c0,0.1,0.1,0.1,0.1,0.2c0.5,0.5,1.1,0.7,1.7,0.7
								c0.2,0,0.4-0.1,0.4-0.3c0-0.1,0-0.3-0.1-0.4c-0.1-0.3-0.4-0.4-0.6-0.5C1119,376.6,1118.3,376.4,1118,376.5z"/>
							<path class="st6" d="M1099.4,349.4c0-0.2-0.1-0.5-0.3-0.5c-0.1,0-0.1,0-0.2,0.1c-0.6,0.3-1,0.9-1.2,1.6
								c0,0.2-0.1,0.4,0.1,0.6c0.1,0.1,0.2,0.1,0.3,0.1c0.2,0,0.5-0.2,0.6-0.4C1098.9,350.5,1099.3,349.8,1099.4,349.4z"/>
							<path class="st6" d="M1124.1,372.9c0.4,0,0.7-0.2,0.9-0.5c0.3-0.4,0.3-0.9,0.3-1.5c0-0.7-0.2-1.4-0.5-2
								c-0.2-0.4-0.5-0.8-0.9-0.9c-0.4-0.1-0.8,0.1-1.1,0.3c-0.3,0.2-0.7,0.6-0.8,1c-0.1,0.5,0,1.1,0.2,1.6
								C1122.5,371.6,1123.4,372.9,1124.1,372.9z"/>
							<path class="st6" d="M1113.7,371.6c0.6,0.1,1.1-0.2,1.5-0.7c0.4-0.5,0.5-1.1,0.6-1.8c0-0.4,0-0.9-0.3-1.3
								c-0.3-0.4-0.7-0.5-1.1-0.4c-0.4,0.1-0.8,0.4-1,0.7c-0.3,0.4-0.5,0.9-0.7,1.4C1112.3,370.3,1112.8,371.5,1113.7,371.6z"/>
							<path class="st6" d="M1112.8,363.5c0.2,0,0.3-0.1,0.4-0.2c0.1-0.2,0.2-0.4,0.2-0.6c0-0.1,0-0.3-0.1-0.4
								c-0.1-0.1-0.2-0.2-0.4-0.1s-0.2,0.1-0.3,0.2c-0.1,0.1-0.2,0.3-0.2,0.4C1112.4,363.2,1112.6,363.5,1112.8,363.5z"/>
							<path class="st6" d="M1100.8,361.7c0.2,0,0.3-0.1,0.4-0.2c0.1-0.2,0.2-0.4,0.2-0.6c0-0.1,0-0.3-0.1-0.4
								c-0.1-0.1-0.2-0.2-0.4-0.1c-0.1,0-0.2,0.1-0.3,0.2c-0.1,0.1-0.2,0.3-0.2,0.4C1100.4,361.3,1100.5,361.7,1100.8,361.7z"/>
							<path class="st6" d="M1100.2,356.3c0-0.2-0.1-0.4-0.3-0.5c-0.2-0.1-0.3-0.1-0.5-0.1c-0.1,0-0.2,0.1-0.3,0.2
								c-0.1,0.1-0.1,0.3,0,0.4c0.1,0.1,0.2,0.3,0.3,0.3c0.1,0.1,0.3,0.2,0.4,0.2C1100,356.9,1100.2,356.7,1100.2,356.3z"/>
							<path class="st6" d="M1096.3,353.8c0.1,0,0.2,0,0.2-0.1c0.1-0.1,0.1-0.2,0.1-0.3c0-0.1,0-0.1,0-0.2c0-0.1-0.1-0.1-0.2-0.1
								c-0.1,0-0.1,0.1-0.2,0.1c0,0.1-0.1,0.1-0.1,0.2C1096.1,353.6,1096.2,353.8,1096.3,353.8z"/>
							<path class="st6" d="M1100.7,354.1c0.1,0,0.2,0,0.2-0.1c0.1-0.1,0.1-0.2,0.1-0.3c0-0.1,0-0.1,0-0.2c0-0.1-0.1-0.1-0.2-0.1
								c-0.1,0-0.1,0.1-0.2,0.1c0,0.1-0.1,0.1-0.1,0.2C1100.5,353.9,1100.6,354.1,1100.7,354.1z"/>
							<path class="st6" d="M1095.6,349.8c0.1,0,0.2,0,0.2-0.1c0.1-0.1,0.1-0.2,0.1-0.3c0-0.1,0-0.1,0-0.2c0-0.1-0.1-0.1-0.2-0.1
								c-0.1,0-0.1,0.1-0.2,0.1c0,0.1-0.1,0.1-0.1,0.2C1095.4,349.6,1095.5,349.7,1095.6,349.8z"/>
							<path class="st6" d="M1098.7,345.7c0.2,0,0.3-0.1,0.5-0.2c0.1-0.2,0.2-0.4,0.2-0.6c0-0.1,0-0.3-0.1-0.4
								c-0.1-0.1-0.2-0.2-0.4-0.1c-0.1,0-0.2,0.1-0.3,0.2c-0.1,0.1-0.2,0.3-0.2,0.4C1098.3,345.3,1098.5,345.6,1098.7,345.7z"/>
							<path class="st6" d="M1095.1,346.5c0.2,0,0.3-0.1,0.4-0.2c0.1-0.2,0.2-0.4,0.2-0.6c0-0.1,0-0.3-0.1-0.4
								c-0.1-0.1-0.2-0.2-0.4-0.1c-0.1,0-0.2,0.1-0.3,0.2c-0.1,0.1-0.2,0.3-0.2,0.4C1094.7,346.1,1094.9,346.5,1095.1,346.5z"/>
						</g>
						<g>
							<path class="st6" d="M1107.1,407.6c0.6,0.3,1.2,0.6,1.9,0.6c0.6,0.1,1.3-0.1,1.8-0.7c0.1-0.1,0.2-0.3,0.2-0.4
								c0-0.3-0.2-0.5-0.3-0.7c-1.4-1.6-3.2-2.6-5-3.6c-0.5-0.3-1.1-0.6-1.6-0.6c-0.6,0-1.2,0.3-1.4,0.9c-0.3,0.9,0.4,1.9,1,2.4
								C1104.7,406.4,1106,407,1107.1,407.6z"/>
							<path class="st6" d="M1100.7,399c0.3,0.1,0.7,0,0.7-0.4c0-0.1,0-0.2,0-0.3c-0.2-1.1-0.8-2.2-1.6-2.8
								c-0.2-0.2-0.5-0.3-0.7-0.1c-0.1,0.1-0.2,0.3-0.2,0.5c0,0.5,0.1,0.9,0.3,1.3C1099.4,397.8,1100.2,398.8,1100.7,399z"/>
							<path class="st6" d="M1109.3,411.7c-0.2,0-0.4,0.2-0.3,0.4c0,0.1,0,0.1,0.1,0.2c0.3,0.6,0.9,1.1,1.5,1.2c0.2,0,0.4,0,0.5-0.1
								c0.1-0.1,0-0.2,0-0.4c-0.1-0.3-0.2-0.5-0.5-0.7C1110.3,412.1,1109.7,411.7,1109.3,411.7z"/>
							<path class="st6" d="M1123.2,416.6c-0.1,0.1-0.2,0.4,0,0.6c0,0,0.1,0.1,0.2,0.1c0.6,0.2,1.3,0.2,1.8-0.1
								c0.1-0.1,0.3-0.2,0.3-0.4c0-0.1-0.1-0.2-0.2-0.3c-0.2-0.2-0.5-0.2-0.7-0.2C1124.1,416.2,1123.4,416.3,1123.2,416.6z"/>
							<path class="st6" d="M1097.4,399.7c-0.1-0.2-0.3-0.4-0.4-0.3c-0.1,0-0.1,0.1-0.1,0.1c-0.4,0.5-0.6,1.3-0.5,2
								c0,0.2,0.1,0.4,0.2,0.5c0.1,0,0.2,0,0.3-0.1c0.2-0.1,0.4-0.4,0.4-0.7C1097.4,400.9,1097.5,400.1,1097.4,399.7z"/>
							<path class="st6" d="M1127.6,410.5c0.3-0.1,0.6-0.5,0.7-0.9c0.1-0.5-0.1-1-0.3-1.5c-0.3-0.6-0.6-1.2-1.1-1.6
								c-0.3-0.3-0.7-0.5-1.1-0.4c-0.4,0.1-0.7,0.4-0.9,0.8c-0.2,0.4-0.4,0.9-0.4,1.3c0,0.5,0.4,1,0.7,1.3
								C1125.7,410,1126.9,410.8,1127.6,410.5z"/>
							<path class="st6" d="M1117.7,413.9c0.5-0.2,0.9-0.7,1.1-1.4c0.2-0.6,0.1-1.3-0.1-1.9c-0.1-0.4-0.3-0.8-0.7-1.1
								c-0.4-0.2-0.8-0.2-1.2,0.1c-0.3,0.3-0.6,0.7-0.7,1.2c-0.1,0.5-0.2,1-0.1,1.6C1116,413.4,1116.9,414.2,1117.7,413.9z"/>
							<path class="st6" d="M1114.3,406.8c0.2-0.1,0.3-0.2,0.3-0.4s0-0.4,0-0.6c0-0.1-0.1-0.3-0.2-0.3c-0.1-0.1-0.3,0-0.4,0
								c-0.1,0.1-0.2,0.2-0.2,0.4c0,0.2-0.1,0.3,0,0.5C1113.8,406.6,1114,406.9,1114.3,406.8z"/>
							<path class="st6" d="M1102.7,410.6c0.2-0.1,0.3-0.2,0.3-0.4c0-0.2,0-0.4,0-0.6c0-0.1-0.1-0.3-0.2-0.3c-0.1-0.1-0.3,0-0.4,0
								s-0.2,0.2-0.2,0.4c0,0.2-0.1,0.3,0,0.5C1102.2,410.4,1102.5,410.6,1102.7,410.6z"/>
							<path class="st6" d="M1100.4,405.8c-0.1-0.2-0.3-0.3-0.4-0.3c-0.2,0-0.3,0-0.5,0.1c-0.1,0.1-0.2,0.2-0.2,0.3
								c0,0.1,0,0.3,0.1,0.4c0.1,0.1,0.2,0.2,0.4,0.2c0.1,0,0.3,0,0.4,0C1100.4,406.4,1100.5,406.1,1100.4,405.8z"/>
							<path class="st6" d="M1096.1,405.2c0.1,0,0.1-0.1,0.2-0.2c0-0.1,0-0.2,0-0.3c0-0.1,0-0.1-0.1-0.2c-0.1,0-0.1,0-0.2,0
								c-0.1,0-0.1,0.1-0.1,0.2c0,0.1,0,0.2,0,0.2C1095.8,405.1,1096,405.2,1096.1,405.2z"/>
							<path class="st6" d="M1100.2,403.5c0.1,0,0.1-0.1,0.2-0.2c0-0.1,0-0.2,0-0.3c0-0.1,0-0.1-0.1-0.2c-0.1,0-0.1,0-0.2,0
								c-0.1,0-0.1,0.1-0.1,0.2c0,0.1,0,0.2,0,0.2C1099.9,403.4,1100,403.5,1100.2,403.5z"/>
							<path class="st6" d="M1094.1,401.7c0.1,0,0.1-0.1,0.2-0.2c0-0.1,0-0.2,0-0.3c0-0.1,0-0.1-0.1-0.2c-0.1,0-0.1,0-0.2,0
								c-0.1,0-0.1,0.1-0.1,0.2c0,0.1,0,0.2,0,0.2C1093.8,401.6,1094,401.8,1094.1,401.7z"/>
							<path class="st6" d="M1095.6,396.5c0.2-0.1,0.3-0.2,0.3-0.4c0-0.2,0-0.4,0-0.6c0-0.1-0.1-0.3-0.2-0.3c-0.1-0.1-0.3-0.1-0.4,0
								c-0.1,0.1-0.2,0.2-0.2,0.4c0,0.2-0.1,0.3,0,0.5C1095.1,396.3,1095.3,396.6,1095.6,396.5z"/>
							<path class="st6" d="M1092.6,398.9c0.2-0.1,0.3-0.2,0.3-0.4c0-0.2,0-0.4,0-0.6c0-0.1-0.1-0.3-0.2-0.3c-0.1-0.1-0.3,0-0.4,0
								c-0.1,0.1-0.2,0.2-0.2,0.4c0,0.2-0.1,0.3,0,0.5C1092.1,398.8,1092.3,399,1092.6,398.9z"/>
						</g>
						<g>
							<path class="st6" d="M1132.1,449.1c0.2,0,0.5,0,0.7-0.2c0.2-0.2,0.4-0.7,0.4-1.4c0-0.2,0-0.3,0-0.5c0-0.2-0.1-0.4-0.2-0.5
								c-0.7-1-1.5-1.2-2.2-1.4c-0.2-0.1-0.4-0.1-0.6,0.1c-0.2,0.2-0.3,0.7-0.3,1.4c0.1,1,0.5,1.6,0.8,1.9
								C1131.1,448.9,1131.6,449,1132.1,449.1z"/>
							<path class="st6" d="M1126.7,443.8c0.3,0,0.6-0.3,0.5-0.7c0-0.1-0.1-0.2-0.1-0.3c-0.6-1-1.4-1.6-2.4-1.8
								c-0.3-0.1-0.6,0-0.7,0.2c-0.1,0.2-0.1,0.4,0,0.6c0.1,0.4,0.4,0.8,0.7,1.1C1125.1,443.3,1126.2,443.9,1126.7,443.8z"/>
							<path class="st6" d="M1138.8,451.6c-0.2,0.1-0.3,0.4-0.2,0.6c0,0.1,0.1,0.1,0.1,0.1c0.5,0.4,1.2,0.6,1.8,0.4
								c0.2,0,0.3-0.1,0.4-0.3c0-0.1,0-0.3-0.1-0.4c-0.2-0.2-0.4-0.4-0.7-0.4C1139.8,451.4,1139.1,451.4,1138.8,451.6z"/>
							<path class="st6" d="M1152.9,449.6c-0.1,0.2,0,0.5,0.2,0.6c0.1,0,0.1,0,0.2,0c0.6,0,1.2-0.4,1.6-1c0.1-0.2,0.2-0.4,0.1-0.5
								c-0.1-0.1-0.2-0.2-0.3-0.2c-0.2-0.1-0.5,0-0.7,0.1C1153.7,448.7,1153.1,449.2,1152.9,449.6z"/>
							<path class="st6" d="M1123.9,446c-0.1-0.2-0.4-0.2-0.5-0.1c0,0.1-0.1,0.1-0.1,0.2c-0.2,0.7-0.1,1.5,0.2,2.1
								c0.1,0.2,0.2,0.4,0.4,0.3c0.1,0,0.2-0.1,0.3-0.2c0.1-0.2,0.2-0.5,0.2-0.8C1124.3,447.1,1124.2,446.3,1123.9,446z"/>
							<path class="st6" d="M1154.8,441.8c0.2-0.3,0.4-0.7,0.3-1.1c-0.1-0.5-0.4-0.9-0.7-1.3c-0.5-0.5-1-0.8-1.6-1
								c-0.4-0.1-0.8-0.1-1.2,0.1c-0.3,0.3-0.5,0.7-0.6,1.2c-0.1,0.5-0.1,1,0.1,1.4c0.2,0.5,0.7,0.8,1.1,0.9
								C1153,442.2,1154.3,442.3,1154.8,441.8z"/>
							<path class="st6" d="M1147.1,449.7c0.4-0.4,0.6-1.1,0.5-1.8c-0.1-0.7-0.4-1.3-0.7-1.8c-0.3-0.3-0.6-0.6-1-0.7
								c-0.4,0-0.8,0.2-1,0.7c-0.2,0.4-0.3,0.9-0.2,1.4c0,0.5,0.2,1.1,0.4,1.5C1145.4,449.9,1146.5,450.3,1147.1,449.7z"/>
							<path class="st6" d="M1137.4,443.3c0.4-0.4,0.6-1.1,0.5-1.8c-0.1-0.7-0.4-1.3-0.7-1.8c-0.3-0.3-0.6-0.6-1-0.7
								c-0.4,0-0.8,0.2-1,0.7c-0.2,0.4-0.3,0.9-0.2,1.4c0,0.5,0.2,1.1,0.4,1.5C1135.8,443.6,1136.8,444,1137.4,443.3z"/>
							<path class="st6" d="M1141.6,444.6c0.1-0.1,0.2-0.3,0.2-0.5s-0.1-0.4-0.2-0.5c-0.1-0.1-0.2-0.2-0.3-0.2
								c-0.1,0-0.3,0.1-0.3,0.2c-0.1,0.1-0.1,0.3-0.1,0.4c0,0.2,0.1,0.3,0.1,0.5C1141.1,444.7,1141.4,444.8,1141.6,444.6z"/>
							<path class="st6" d="M1132.5,453.6c0.1-0.1,0.2-0.3,0.2-0.5c0-0.2-0.1-0.4-0.2-0.5c-0.1-0.1-0.2-0.2-0.3-0.2
								c-0.1,0-0.3,0.1-0.3,0.2s-0.1,0.3-0.1,0.4c0,0.2,0.1,0.3,0.1,0.5C1132,453.7,1132.3,453.8,1132.5,453.6z"/>
							<path class="st6" d="M1128.8,450.3c-0.1-0.1-0.3-0.2-0.5-0.1c-0.2,0.1-0.3,0.2-0.4,0.3c-0.1,0.1-0.1,0.2-0.1,0.4
								c0,0.2,0.1,0.3,0.2,0.3c0.1,0.1,0.3,0,0.4,0c0.1,0,0.3-0.1,0.4-0.2C1129,450.8,1129,450.5,1128.8,450.3z"/>
							<path class="st6" d="M1124.7,451.7c0.1-0.1,0.1-0.2,0.1-0.3c0-0.1-0.1-0.2-0.1-0.3c0,0-0.1-0.1-0.1-0.1c-0.1,0-0.1,0-0.2,0.1
								c0,0.1,0,0.1,0,0.2c0,0.1,0,0.2,0.1,0.2C1124.4,451.8,1124.6,451.8,1124.7,451.7z"/>
							<path class="st6" d="M1127.7,448.2c0.1-0.1,0.1-0.2,0.1-0.3c0-0.1-0.1-0.2-0.1-0.3c0,0-0.1-0.1-0.1-0.1c-0.1,0-0.1,0-0.2,0.1
								c0,0.1,0,0.1,0,0.2c0,0.1,0,0.2,0.1,0.2C1127.5,448.2,1127.7,448.3,1127.7,448.2z"/>
							<path class="st6" d="M1121.7,449.4c0.1-0.1,0.1-0.2,0.1-0.3c0-0.1-0.1-0.2-0.1-0.3c0,0-0.1-0.1-0.1-0.1c-0.1,0-0.1,0-0.2,0.1
								c0,0.1,0,0.1,0,0.2c0,0.1,0,0.2,0.1,0.2C1121.4,449.5,1121.6,449.5,1121.7,449.4z"/>
							<path class="st6" d="M1121.2,443.8c0.1-0.1,0.2-0.3,0.2-0.6c0-0.2-0.1-0.4-0.2-0.5c-0.1-0.1-0.2-0.2-0.3-0.2
								c-0.1,0-0.3,0.1-0.3,0.2c-0.1,0.1-0.1,0.3-0.1,0.4c0,0.2,0.1,0.3,0.1,0.5C1120.7,443.9,1121,444,1121.2,443.8z"/>
							<path class="st6" d="M1119.4,447.5c0.1-0.1,0.2-0.3,0.2-0.5c0-0.2-0.1-0.4-0.2-0.5c-0.1-0.1-0.2-0.2-0.3-0.2
								c-0.1,0-0.3,0.1-0.3,0.2c-0.1,0.1-0.1,0.3-0.1,0.4c0,0.2,0.1,0.3,0.1,0.5C1118.9,447.6,1119.2,447.7,1119.4,447.5z"/>
						</g>
						<g>
							<path class="st7" d="M1133.1,386.9c27.6,30.1,51.3,65,70.2,103.1"/>
							<path class="st7" d="M1187.8,423.4c4.1,12.8,5.3,24.7-1.7,35c-1.2,1.7-9.7,6.2-18.4,4.9"/>
							<path class="st7" d="M1162.1,389.8c6.3,13.3,3.7,31.3-5.9,40.7c-3,2.9-6.8,5.1-10.7,4.2"/>
							<path class="st7" d="M1138.1,370.4c2,5.2,3.2,10.8,3.7,16.4c0.4,4.7,0,9.9-2.8,13.1c-2,2.2-4.9,3-7.7,2.9
								c-2.8-0.1-5.5-1.1-8.2-2"/>
						</g>
					</g>
				</g>
				<g>
					<g>
						
							<linearGradient id="SVGID_8_" gradientUnits="userSpaceOnUse" x1="2448.6509" y1="1017.4609" x2="2668.9441" y2="1319.3921" gradientTransform="matrix(-0.9291 -0.3698 -0.3698 0.9291 2914.7437 580.9215)">
							<stop  offset="0" style="stop-color:#3E6AFA"/>
							<stop  offset="0.8585" style="stop-color:#0A0940"/>
						</linearGradient>
						<path class="st8" d="M266.2,584c3-1.4,6.7-2.3,9.3,0.1c1.2,1.1,2,2.8,2.6,4.6c2.8,9.8-3.5,20-10.3,25.8
							c-6.9,5.7-15.1,9.8-19.5,18.6c6.2,4,14-1.4,20.7,1.4c4.8,2,8,8.2,8.1,14.6c0,6.3-3,12.4-7.3,15.7c-9.5,7.2-21.8,0.6-32.7,2.6
							c-3,0.6-6,1.9-8,4.7c-2,2.8-2.8,7.4-1.1,10.5c3.6,6.7,14.2,2.2,16.9,9.6c1.2,3.2,0,7.1-2.1,9.4c-2.1,2.3-4.9,3.2-7.6,3.8
							c-6.4,1.4-13.1,1.2-19.5-0.6c-2.3-0.6-4.7-1.5-7.1-1.2c-2.4,0.3-4.9,1.9-5.6,4.8c-2.2,8.6,11.9,14.4,9,22.7
							c-1.7,4.8-7.2,4.1-11.1,2.5c-9.3-3.6-18.7-7.3-28-10.9c-5.1-2-10.7-4.5-13-10.5c-1.2-3.1-1.3-6.7-1.4-10.1
							c-0.2-18.9,1.6-37.9,5.4-56.2c0.8-4.1,1.9-8.4,4.4-11.1c2.5-2.7,7-3,8.8,0.6c1.2,2.3,2,6.3,4,5.4c0.9-0.4,1.3-1.9,1.5-3.1
							c3.6-19.4,5.1-41.3,16.6-54.9c1.1-1.3,2.3-2.5,3.7-2.9c3.7-1,6.9,4.1,7.4,8.9c0.5,4.8-0.5,9.7-0.1,14.5
							c0.5,4.8,3.5,9.9,7.2,9.2c2.3-13.2,7.5-25.5,15-35.1c2.9-3.8,8-7.1,10.9-3.2c1.6,2.1,1.5,5.4,1.3,8.2
							c-0.6,6.2-1.9,12.3-3.9,18.1c-1,2.8-3.1,9.3,0.7,9.4c2,0.1,5.6-8.5,6.9-10.3C253.3,592.5,259.4,587.1,266.2,584z"/>
						<g>
							<path class="st6" d="M263.1,607.4c-0.5,0.5-1.1,1-1.7,1.2c-0.6,0.3-1.3,0.3-1.9-0.2c-0.1-0.1-0.2-0.2-0.3-0.4
								c-0.1-0.3,0-0.5,0.1-0.8c1-2.1,2.5-3.7,4-5.2c0.4-0.5,0.9-0.9,1.4-1.1c0.5-0.2,1.2-0.1,1.6,0.5c0.5,0.8,0.1,2.1-0.4,2.9
								C265.2,605.4,264.1,606.6,263.1,607.4z"/>
							<path class="st6" d="M267.4,596.6c-0.3,0.2-0.6,0.2-0.8-0.2c0-0.1-0.1-0.2-0.1-0.3c-0.1-1.2,0.3-2.5,0.9-3.4
								c0.2-0.2,0.4-0.5,0.7-0.4c0.2,0.1,0.3,0.3,0.3,0.5c0.1,0.5,0.1,1,0,1.5C268.3,594.9,267.8,596.2,267.4,596.6z"/>
							<path class="st6" d="M262,612.4c0.2,0,0.4,0.1,0.4,0.3c0,0.1,0,0.2,0,0.2c-0.2,0.7-0.6,1.4-1.2,1.7c-0.2,0.1-0.3,0.1-0.5,0
								c-0.1-0.1-0.1-0.2-0.1-0.4c0-0.3,0.1-0.6,0.3-0.9C261.1,613.1,261.6,612.5,262,612.4z"/>
							<path class="st6" d="M249.6,621.7c0.2,0.1,0.3,0.4,0.2,0.6c0,0.1-0.1,0.1-0.1,0.2c-0.5,0.4-1.2,0.6-1.8,0.4
								c-0.2-0.1-0.3-0.2-0.4-0.4c0-0.1,0-0.3,0.1-0.4c0.2-0.2,0.4-0.4,0.7-0.5C248.5,621.5,249.3,621.5,249.6,621.7z"/>
							<path class="st6" d="M270.8,596.3c0-0.2,0.2-0.5,0.4-0.4c0.1,0,0.1,0.1,0.2,0.1c0.5,0.4,0.9,1.1,1,1.9c0,0.2,0,0.5-0.1,0.6
								c-0.1,0.1-0.2,0.1-0.3,0c-0.2-0.1-0.4-0.3-0.6-0.6C271.1,597.5,270.7,596.7,270.8,596.3z"/>
							<path class="st6" d="M243.8,616.6c-0.4,0-0.7-0.3-0.9-0.7c-0.2-0.5-0.2-1.1-0.1-1.6c0.1-0.7,0.3-1.5,0.7-2
								c0.3-0.4,0.6-0.8,1-0.8c0.4,0,0.8,0.2,1.1,0.6c0.3,0.3,0.6,0.8,0.7,1.3c0.1,0.6-0.1,1.2-0.4,1.6
								C245.5,615.5,244.6,616.7,243.8,616.6z"/>
							<path class="st6" d="M254.3,617.2c-0.6,0-1.1-0.5-1.4-1.1c-0.3-0.6-0.4-1.3-0.4-2c0-0.5,0.1-1,0.4-1.3
								c0.3-0.4,0.8-0.4,1.2-0.2c0.4,0.2,0.7,0.6,0.9,1c0.3,0.5,0.4,1,0.5,1.6C255.8,616.2,255.2,617.3,254.3,617.2z"/>
							<path class="st6" d="M256,608.8c-0.2,0-0.3-0.2-0.4-0.3c-0.1-0.2-0.1-0.4-0.1-0.6c0-0.1,0-0.3,0.1-0.4
								c0.1-0.1,0.2-0.1,0.4-0.1c0.1,0.1,0.2,0.2,0.3,0.3c0.1,0.1,0.1,0.3,0.2,0.5C256.4,608.4,256.2,608.8,256,608.8z"/>
							<path class="st6" d="M268.1,609.2c-0.2,0-0.3-0.2-0.4-0.3c-0.1-0.2-0.1-0.4-0.1-0.6c0-0.1,0-0.3,0.1-0.4
								c0.1-0.1,0.2-0.1,0.4-0.1c0.1,0.1,0.2,0.2,0.3,0.3c0.1,0.1,0.1,0.3,0.2,0.5C268.6,608.9,268.4,609.2,268.1,609.2z"/>
							<path class="st6" d="M269.2,603.6c0-0.2,0.2-0.4,0.3-0.5c0.2-0.1,0.3-0.1,0.5,0c0.1,0,0.2,0.1,0.3,0.2c0.1,0.1,0.1,0.3,0,0.5
								c-0.1,0.1-0.2,0.2-0.3,0.3c-0.1,0.1-0.3,0.1-0.4,0.1C269.4,604.2,269.2,603.9,269.2,603.6z"/>
							<path class="st6" d="M273.3,601.6c-0.1,0-0.2-0.1-0.2-0.2c0-0.1-0.1-0.2-0.1-0.3c0-0.1,0-0.1,0.1-0.2c0-0.1,0.1-0.1,0.2,0
								c0.1,0,0.1,0.1,0.1,0.2c0,0.1,0.1,0.2,0.1,0.2C273.5,601.5,273.4,601.6,273.3,601.6z"/>
							<path class="st6" d="M268.9,601.1c-0.1,0-0.2-0.1-0.2-0.2c0-0.1-0.1-0.2-0.1-0.3c0-0.1,0-0.1,0.1-0.2c0-0.1,0.1-0.1,0.2,0
								c0.1,0,0.1,0.1,0.1,0.2c0,0.1,0.1,0.2,0.1,0.2C269.1,600.9,269.1,601.1,268.9,601.1z"/>
							<path class="st6" d="M274.5,597.4c-0.1,0-0.2-0.1-0.2-0.2c0-0.1-0.1-0.2-0.1-0.3c0-0.1,0-0.1,0.1-0.2c0-0.1,0.1-0.1,0.2,0
								s0.1,0.1,0.1,0.2c0,0.1,0.1,0.2,0.1,0.2C274.7,597.3,274.6,597.4,274.5,597.4z"/>
							<path class="st6" d="M271.8,592.4c-0.2,0-0.3-0.2-0.4-0.3c-0.1-0.2-0.1-0.4-0.1-0.6c0-0.1,0-0.3,0.1-0.4
								c0.1-0.1,0.2-0.1,0.4-0.1c0.1,0.1,0.2,0.2,0.3,0.3c0.1,0.1,0.1,0.3,0.2,0.5C272.2,592.1,272,592.4,271.8,592.4z"/>
							<path class="st6" d="M275.3,594.1c-0.2,0-0.3-0.2-0.4-0.3c-0.1-0.2-0.1-0.4-0.1-0.6c0-0.1,0-0.3,0.1-0.4
								c0.1-0.1,0.2-0.1,0.4-0.1c0.1,0.1,0.2,0.2,0.3,0.3c0.1,0.1,0.1,0.3,0.2,0.5C275.7,593.7,275.5,594.1,275.3,594.1z"/>
						</g>
						<g>
							<path class="st6" d="M257.2,657.3c-0.6,0.2-1.3,0.4-1.9,0.3c-0.6-0.1-1.3-0.4-1.7-1.1c-0.1-0.2-0.1-0.3-0.1-0.5
								c0-0.3,0.2-0.5,0.4-0.7c1.5-1.5,3.4-2.2,5.3-2.9c0.5-0.2,1.1-0.4,1.7-0.3c0.6,0.1,1.1,0.5,1.3,1.2c0.2,1-0.5,1.9-1.3,2.4
								C259.7,656.5,258.3,657,257.2,657.3z"/>
							<path class="st6" d="M264.4,649.4c-0.3,0.1-0.6-0.2-0.7-0.5c0-0.1,0-0.2,0-0.3c0.3-1.2,1-2.2,1.9-2.7c0.2-0.1,0.5-0.2,0.7,0
								c0.1,0.1,0.2,0.4,0.2,0.6c0,0.5-0.2,1-0.4,1.4C265.8,648.3,265,649.3,264.4,649.4z"/>
							<path class="st6" d="M254.6,661.3c0.2,0.1,0.3,0.3,0.3,0.5c0,0.1-0.1,0.1-0.1,0.2c-0.4,0.6-1,1-1.6,1c-0.2,0-0.4,0-0.4-0.2
								c0-0.1,0-0.3,0-0.4c0.1-0.3,0.3-0.5,0.5-0.7C253.6,661.5,254.2,661.2,254.6,661.3z"/>
							<path class="st6" d="M240.3,663.8c0.1,0.2,0.1,0.5,0,0.6c0,0-0.1,0.1-0.2,0.1c-0.6,0.1-1.3,0-1.8-0.5
								c-0.1-0.1-0.3-0.3-0.2-0.5c0-0.1,0.1-0.2,0.2-0.3c0.2-0.1,0.5-0.2,0.7-0.1C239.4,663.1,240.1,663.4,240.3,663.8z"/>
							<path class="st6" d="M267.6,650.8c0.1-0.2,0.3-0.3,0.5-0.2c0.1,0,0.1,0.1,0.1,0.2c0.3,0.6,0.5,1.5,0.3,2.2
								c0,0.2-0.1,0.4-0.3,0.5c-0.1,0-0.2,0-0.3-0.1c-0.2-0.2-0.3-0.5-0.4-0.8C267.5,652.1,267.5,651.2,267.6,650.8z"/>
							<path class="st6" d="M236.6,656.3c-0.3-0.2-0.5-0.6-0.6-1.1c0-0.5,0.2-1.1,0.4-1.5c0.3-0.6,0.8-1.2,1.3-1.5
								c0.4-0.2,0.8-0.4,1.2-0.2c0.4,0.2,0.6,0.6,0.8,1c0.2,0.5,0.3,1,0.2,1.5c-0.1,0.6-0.5,1-0.9,1.3
								C238.5,656.1,237.2,656.7,236.6,656.3z"/>
							<path class="st6" d="M246.1,662c-0.5-0.3-0.8-1-0.9-1.7c-0.1-0.7,0-1.4,0.3-2.1c0.2-0.4,0.4-0.8,0.8-1c0.4-0.2,0.9,0,1.2,0.4
								c0.3,0.4,0.5,0.9,0.6,1.4c0.1,0.6,0.1,1.2,0,1.7C247.7,661.7,246.8,662.5,246.1,662z"/>
							<path class="st6" d="M250.2,655c-0.2-0.1-0.3-0.3-0.3-0.5c0-0.2,0-0.4,0.1-0.6c0.1-0.1,0.1-0.3,0.2-0.3
								c0.1-0.1,0.3,0,0.4,0.1c0.1,0.1,0.1,0.3,0.2,0.4c0,0.2,0,0.4,0,0.5C250.7,654.9,250.4,655.2,250.2,655z"/>
							<path class="st6" d="M261.2,661.4c-0.2-0.1-0.3-0.3-0.3-0.5c0-0.2,0-0.4,0.1-0.6c0.1-0.1,0.1-0.3,0.2-0.3
								c0.1-0.1,0.3,0,0.4,0.1c0.1,0.1,0.1,0.3,0.2,0.4c0,0.2,0,0.4,0,0.5C261.7,661.3,261.5,661.5,261.2,661.4z"/>
							<path class="st6" d="M264,656.8c0.1-0.2,0.3-0.3,0.5-0.3c0.2,0,0.3,0.1,0.5,0.2c0.1,0.1,0.2,0.2,0.2,0.4c0,0.2,0,0.3-0.2,0.4
								s-0.2,0.1-0.4,0.1c-0.1,0-0.3,0-0.4-0.1C264,657.4,263.8,657,264,656.8z"/>
							<path class="st6" d="M268.4,657c-0.1,0-0.1-0.1-0.1-0.3c0-0.1,0-0.2,0-0.3c0-0.1,0.1-0.1,0.1-0.2c0.1,0,0.1,0,0.2,0.1
								c0,0.1,0.1,0.1,0.1,0.2c0,0.1,0,0.2,0,0.3C268.6,656.9,268.5,657,268.4,657z"/>
							<path class="st6" d="M264.5,654.3c-0.1,0-0.1-0.1-0.1-0.3c0-0.1,0-0.2,0-0.3c0-0.1,0.1-0.1,0.1-0.2c0.1,0,0.1,0,0.2,0.1
								c0,0.1,0.1,0.1,0.1,0.2c0,0.1,0,0.2,0,0.3C264.7,654.2,264.6,654.3,264.5,654.3z"/>
							<path class="st6" d="M270.7,653.6c-0.1,0-0.1-0.1-0.1-0.3c0-0.1,0-0.2,0-0.3c0-0.1,0.1-0.1,0.1-0.2c0.1,0,0.1,0,0.2,0.1
								c0,0.1,0.1,0.1,0.1,0.2c0,0.1,0,0.2,0,0.3C270.9,653.6,270.8,653.7,270.7,653.6z"/>
							<path class="st6" d="M269.7,647.7c-0.2-0.1-0.3-0.3-0.3-0.5c0-0.2,0-0.4,0.1-0.6c0.1-0.1,0.1-0.3,0.2-0.3
								c0.1-0.1,0.3,0,0.4,0.1c0.1,0.1,0.1,0.3,0.2,0.4c0,0.2,0,0.4,0,0.5C270.2,647.6,270,647.8,269.7,647.7z"/>
							<path class="st6" d="M272.5,650.9c-0.2-0.1-0.3-0.3-0.3-0.5c0-0.2,0-0.4,0.1-0.6c0.1-0.1,0.1-0.3,0.2-0.3
								c0.1-0.1,0.3,0,0.4,0.1c0.1,0.1,0.1,0.3,0.2,0.4c0,0.2,0,0.4,0,0.5C273,650.9,272.7,651.1,272.5,650.9z"/>
						</g>
						<g>
							<path class="st6" d="M228.2,696.9c-0.2,0-0.5-0.1-0.7-0.3c-0.2-0.3-0.3-0.8-0.3-1.6c0-0.2,0-0.4,0.1-0.5
								c0.1-0.3,0.2-0.4,0.3-0.5c0.8-0.9,1.6-1,2.3-1c0.2,0,0.4,0,0.6,0.2c0.2,0.3,0.2,0.9,0.1,1.6c-0.2,1-0.6,1.7-1,1.9
								C229.2,696.9,228.7,696.9,228.2,696.9z"/>
							<path class="st6" d="M234.1,692.3c-0.3-0.1-0.5-0.5-0.4-0.8c0-0.1,0.1-0.2,0.2-0.3c0.6-0.9,1.6-1.5,2.6-1.5
								c0.3,0,0.6,0.1,0.7,0.4c0.1,0.2,0,0.4,0,0.6c-0.2,0.5-0.5,0.8-0.8,1C235.7,692,234.6,692.5,234.1,692.3z"/>
							<path class="st6" d="M221.3,698.2c0.2,0.1,0.2,0.4,0.1,0.6c0,0.1-0.1,0.1-0.1,0.1c-0.6,0.3-1.2,0.4-1.8,0.1
								c-0.2-0.1-0.3-0.2-0.3-0.4c0-0.1,0.1-0.3,0.1-0.4c0.2-0.2,0.4-0.3,0.7-0.3C220.3,697.9,221,697.9,221.3,698.2z"/>
							<path class="st6" d="M207.5,693.2c0,0.2,0,0.5-0.2,0.6c-0.1,0-0.1,0-0.2,0c-0.6-0.2-1.1-0.7-1.4-1.4c-0.1-0.2-0.1-0.4,0-0.6
								c0.1-0.1,0.2-0.2,0.3-0.2c0.3,0,0.5,0.1,0.7,0.3C206.9,692.1,207.4,692.7,207.5,693.2z"/>
							<path class="st6" d="M236.6,695.2c0.1-0.1,0.4-0.2,0.5,0c0,0.1,0,0.1,0.1,0.2c0.1,0.8,0,1.6-0.4,2.2
								c-0.1,0.2-0.3,0.3-0.4,0.3c-0.1,0-0.2-0.1-0.2-0.3c-0.1-0.3-0.1-0.6-0.1-0.9C236.1,696.4,236.3,695.5,236.6,695.2z"/>
							<path class="st6" d="M206.4,684.4c-0.2-0.4-0.3-0.9-0.2-1.3c0.1-0.5,0.5-0.9,0.9-1.2c0.5-0.4,1.1-0.7,1.7-0.7
								c0.4,0,0.8,0,1.1,0.4c0.3,0.3,0.4,0.9,0.4,1.4c0,0.5,0,1.1-0.3,1.5c-0.3,0.5-0.7,0.7-1.2,0.7
								C208.2,685.2,206.9,685.1,206.4,684.4z"/>
							<path class="st6" d="M213.3,694.5c-0.4-0.5-0.5-1.3-0.3-2c0.1-0.7,0.5-1.3,0.9-1.7c0.3-0.3,0.6-0.6,1-0.5
								c0.4,0,0.8,0.4,1,0.9c0.2,0.5,0.2,1,0.1,1.6c-0.1,0.6-0.3,1.1-0.6,1.6C214.9,695.1,213.8,695.3,213.3,694.5z"/>
							<path class="st6" d="M223.5,689.6c-0.4-0.5-0.5-1.3-0.3-2c0.1-0.7,0.5-1.3,0.9-1.7c0.3-0.3,0.6-0.6,1-0.5
								c0.4,0,0.8,0.4,1,0.9c0.2,0.5,0.2,1,0.1,1.6c-0.1,0.6-0.3,1.1-0.6,1.6C225.1,690.2,224.1,690.4,223.5,689.6z"/>
							<path class="st6" d="M219.3,690.2c-0.1-0.2-0.1-0.4-0.1-0.6c0-0.2,0.2-0.4,0.3-0.5c0.1-0.1,0.2-0.2,0.3-0.2
								c0.1,0,0.2,0.1,0.3,0.3c0.1,0.2,0,0.3,0,0.5c0,0.2-0.1,0.3-0.2,0.5C219.8,690.4,219.4,690.4,219.3,690.2z"/>
							<path class="st6" d="M227.4,701.7c-0.1-0.2-0.1-0.4-0.1-0.6c0-0.2,0.2-0.4,0.3-0.5c0.1-0.1,0.2-0.2,0.3-0.2
								c0.1,0,0.2,0.1,0.3,0.3c0.1,0.2,0,0.3,0,0.5c0,0.2-0.1,0.3-0.2,0.5C227.8,701.9,227.5,701.9,227.4,701.7z"/>
							<path class="st6" d="M231.4,698.8c0.2-0.1,0.3-0.1,0.5,0c0.2,0.1,0.3,0.3,0.4,0.5c0.1,0.1,0.1,0.3,0.1,0.4
								c0,0.2-0.1,0.3-0.3,0.3c-0.1,0-0.3,0-0.4-0.1c-0.1-0.1-0.3-0.2-0.3-0.3C231.1,699.4,231.1,699,231.4,698.8z"/>
							<path class="st6" d="M235.3,701.2c-0.1-0.1-0.1-0.2,0-0.3c0-0.1,0.1-0.2,0.1-0.3c0,0,0.1-0.1,0.2-0.1c0.1,0,0.1,0.1,0.1,0.1
								c0,0.1,0,0.2,0,0.2c0,0.1,0,0.2-0.1,0.2C235.5,701.3,235.4,701.4,235.3,701.2z"/>
							<path class="st6" d="M232.6,696.8c-0.1-0.1-0.1-0.2,0-0.3c0-0.1,0.1-0.2,0.1-0.3c0,0,0.1-0.1,0.2-0.1c0.1,0,0.1,0.1,0.1,0.1
								c0,0.1,0,0.2,0,0.2c0,0.1,0,0.2-0.1,0.2C232.8,696.9,232.7,696.9,232.6,696.8z"/>
							<path class="st6" d="M238.5,699.4c-0.1-0.1-0.1-0.2,0-0.3c0-0.1,0.1-0.2,0.1-0.3c0,0,0.1-0.1,0.2-0.1c0.1,0,0.1,0.1,0.1,0.1
								c0,0.1,0,0.2,0,0.2c0,0.1,0,0.2-0.1,0.2C238.7,699.5,238.6,699.5,238.5,699.4z"/>
							<path class="st6" d="M239.5,693.4c-0.1-0.2-0.1-0.4-0.1-0.6c0-0.2,0.2-0.4,0.3-0.5c0.1-0.1,0.2-0.2,0.3-0.2
								c0.1,0,0.2,0.1,0.3,0.3c0.1,0.2,0,0.3,0,0.5c0,0.2-0.1,0.3-0.2,0.5C240,693.6,239.7,693.7,239.5,693.4z"/>
							<path class="st6" d="M241,697.8c-0.1-0.2-0.1-0.4-0.1-0.6c0-0.2,0.2-0.4,0.3-0.5c0.1-0.1,0.2-0.2,0.3-0.2
								c0.1,0,0.2,0.1,0.3,0.3s0,0.3,0,0.5c0,0.2-0.1,0.3-0.2,0.5C241.5,698,241.1,698.1,241,697.8z"/>
						</g>
						<g>
							<path class="st7" d="M233.5,629.8c-30.4,26.7-57.5,59.5-80,96.6"/>
							<path class="st7" d="M175.5,658c-5.4,12.9-7.8,25.5-1.8,38c1,2.1,9,8.6,17.8,9"/>
							<path class="st7" d="M204.4,627c-7.6,13.1-6.9,32.9,1.7,45c2.7,3.7,6.3,6.9,10.2,6.7"/>
							<path class="st7" d="M230.2,611c-2.5,5.2-4.3,10.9-5.3,16.9c-0.8,5-1,10.6,1.4,14.6c1.7,2.8,4.5,4.3,7.3,4.7
								c2.8,0.4,5.6,0,8.4-0.5"/>
						</g>
					</g>
					<g>
						<linearGradient id="SVGID_9_" gradientUnits="userSpaceOnUse" x1="111.5321" y1="617.6353" x2="201.3354" y2="617.6353">
							<stop  offset="0.2151" style="stop-color:#97B4FB"/>
							<stop  offset="1" style="stop-color:#CDDBFD"/>
						</linearGradient>
						<path class="st9" d="M128.8,585.8c7.1-25.1,17.2-50.3,34.6-65.3c8.4-7.2,20-11.5,28.5-4.5c7.1,5.8,9.7,17.4,9.5,28.1
							c-0.3,13.5-4.1,26.4-8.5,38.7c-13.8,39.2-32.9,75.3-44.5,115.6c-2.3,7.8-4.6,16.4-9.9,21.2c-5,4.5-12.3,4.5-17.4,0
							c-13.5-12.1-9.2-37.9-7.4-55C116.4,637.6,121.5,611.2,128.8,585.8z"/>
						<path class="st10" d="M189.4,514.9c-22.2,31.8-37.4,70.7-47.5,111.2c-10.2,40.5-15.5,82.6-19.8,124.7"/>
					</g>
					<g>
						
							<linearGradient id="SVGID_10_" gradientUnits="userSpaceOnUse" x1="1349.788" y1="756.0071" x2="1444.7035" y2="756.0071" gradientTransform="matrix(0.9609 -0.2769 0.2769 0.9609 -1447.297 251.1297)">
							<stop  offset="2.513970e-02" style="stop-color:#EEBE2D;stop-opacity:0.9078"/>
							<stop  offset="1" style="stop-color:#E48A20"/>
						</linearGradient>
						<path class="st11" d="M86.9,700.5l36.8-13.4c0,0,22.4-97.3,3.8-123.5c0,0,8.1-76.9-9.5-80.6c-17.6-3.7-24.2,59.9-24.2,59.9
							S57.9,554.4,86.9,700.5z"/>
						<path class="st10" d="M118.1,483c0,0-19.8,110.3-12.4,210.6"/>
					</g>
				</g>
			</g>
			<g>
				<g>
					<g>
						<g>
							<g>
								
									<ellipse transform="matrix(0.8608 -0.5089 0.5089 0.8608 26.23 519.5524)" class="st12" cx="963" cy="211.8" rx="34.2" ry="35.7"/>
							</g>
							<g>
								<path class="st13" d="M958.7,208.5L958.7,208.5c-1.6-4.8-6.7-7.5-11.3-6.1c-4.7,1.4-7.3,6.5-5.7,11.4
									c1.6,4.9,6.7,7.7,11.4,6.3c0.1,0,0.2-0.1,0.3-0.1l1.6,6.8c0,0,2.7-6.4,3.9-11.3C960,210.7,958.7,208.5,958.7,208.5z"/>
								<path class="st13" d="M981,201.4L981,201.4c-1.6-4.8-6.7-7.5-11.3-6.1c-4.7,1.4-7.3,6.5-5.7,11.4c1.6,4.9,6.7,7.7,11.4,6.3
									c0.1,0,0.2-0.1,0.3-0.1l1.6,6.8c0,0,2.7-6.4,3.9-11.3C982.4,203.6,981,201.4,981,201.4z"/>
							</g>
						</g>
						<g>
							<g>
								
									<ellipse transform="matrix(0.8608 -0.5089 0.5089 0.8608 80.8382 477.4881)" class="st12" cx="913.4" cy="91" rx="21.6" ry="22.6"/>
							</g>
							<g>
								<path class="st13" d="M910.3,89.4L910.3,89.4c-1.6-2.8-5-3.9-7.7-2.5c-2.8,1.5-3.8,5-2.2,7.8c1.5,2.9,5,4,7.8,2.6
									c0.1,0,0.1-0.1,0.2-0.1l1.8,4.1c0,0,1-4.3,1.1-7.5S910.3,89.4,910.3,89.4z"/>
								<path class="st13" d="M923.3,82.3L923.3,82.3c-1.6-2.8-5-3.9-7.7-2.5c-2.8,1.5-3.8,5-2.2,7.8c1.5,2.9,5,4,7.8,2.6
									c0.1,0,0.1-0.1,0.2-0.1l1.8,4.1c0,0,1-4.3,1.1-7.5C924.4,83.5,923.3,82.3,923.3,82.3z"/>
							</g>
						</g>
					</g>
				</g>
			</g>
		</g>
	</g>
	<g class="st14">
		<g>
			<polygon class="st15" points="177.6,197.7 187.9,208.7 266,176.1 			"/>
			<polygon class="st16" points="181.3,161.4 173.5,173.1 178.7,184.5 167,186.5 156.7,209.2 268.5,175.4 			"/>
			<polygon class="st15" points="178.7,184.5 173.5,173.1 234.1,175.9 			"/>
		</g>
	</g>
</g>
<g id="DESIGNED_BY_FREEPIK">
</g>
</svg>
